<svg xmlns="http://www.w3.org/2000/svg" viewBox="0 0 16 14" shape-rendering="crispEdges"><rect x="6" y="6" width="1" height="1" fill="rgb(125,191,255)"/><rect x="7" y="6" width="1" height="1" fill="rgb(125,191,255)"/><rect x="8" y="6" width="1" height="1" fill="rgb(125,191,255)"/><rect x="9" y="6" width="1" height="1" fill="rgb(59,70,202)"/><rect x="5" y="7" width="1" height="1" fill="rgb(125,191,255)"/><rect x="6" y="7" width="1" height="1" fill="rgb(71,120,255)"/><rect x="7" y="7" width="1" height="1" fill="rgb(71,120,255)"/><rect x="8" y="7" width="1" height="1" fill="rgb(71,120,255)"/><rect x="9" y="7" width="1" height="1" fill="rgb(71,120,255)"/><rect x="10" y="7" width="1" height="1" fill="rgb(59,70,202)"/><rect x="4" y="8" width="1" height="1" fill="rgb(125,191,255)"/><rect x="5" y="8" width="1" height="1" fill="rgb(71,120,255)"/><rect x="6" y="8" width="1" height="1" fill="rgb(71,120,255)"/><rect x="7" y="8" width="1" height="1" fill="rgb(71,120,255)"/><rect x="8" y="8" width="1" height="1" fill="rgb(71,120,255)"/><rect x="9" y="8" width="1" height="1" fill="rgb(71,120,255)"/><rect x="10" y="8" width="1" height="1" fill="rgb(71,120,255)"/><rect x="11" y="8" width="1" height="1" fill="rgb(59,70,202)"/><rect x="4" y="9" width="1" height="1" fill="rgb(125,191,255)"/><rect x="5" y="9" width="1" height="1" fill="rgb(71,120,255)"/><rect x="6" y="9" width="1" height="1" fill="rgb(71,120,255)"/><rect x="7" y="9" width="1" height="1" fill="rgb(31,31,31)"/><rect x="8" y="9" width="1" height="1" fill="rgb(31,31,31)"/><rect x="9" y="9" width="1" height="1" fill="rgb(31,31,31)"/><rect x="10" y="9" width="1" height="1" fill="rgb(31,31,31)"/><rect x="11" y="9" width="1" height="1" fill="rgb(31,31,31)"/><rect x="4" y="10" width="1" height="1" fill="rgb(125,191,255)"/><rect x="5" y="10" width="1" height="1" fill="rgb(71,120,255)"/><rect x="6" y="10" width="1" height="1" fill="rgb(71,120,255)"/><rect x="7" y="10" width="1" height="1" fill="rgb(32,34,40)"/><rect x="8" y="10" width="1" height="1" fill="rgb(32,34,40)"/><rect x="9" y="10" width="1" height="1" fill="rgb(71,120,255)"/><rect x="10" y="10" width="1" height="1" fill="rgb(32,34,40)"/><rect x="11" y="10" width="1" height="1" fill="rgb(32,34,40)"/><rect x="4" y="11" width="1" height="1" fill="rgb(59,70,202)"/><rect x="5" y="11" width="1" height="1" fill="rgb(71,120,255)"/><rect x="6" y="11" width="1" height="1" fill="rgb(71,120,255)"/><rect x="7" y="11" width="1" height="1" fill="rgb(71,120,255)"/><rect x="8" y="11" width="1" height="1" fill="rgb(32,34,40)"/><rect x="9" y="11" width="1" height="1" fill="rgb(71,120,255)"/><rect x="10" y="11" width="1" height="1" fill="rgb(32,34,40)"/><rect x="11" y="11" width="1" height="1" fill="rgb(59,70,202)"/><rect x="5" y="12" width="1" height="1" fill="rgb(59,70,202)"/><rect x="6" y="12" width="1" height="1" fill="rgb(71,120,255)"/><rect x="7" y="12" width="1" height="1" fill="rgb(71,120,255)"/><rect x="8" y="12" width="1" height="1" fill="rgb(71,120,255)"/><rect x="9" y="12" width="1" height="1" fill="rgb(71,120,255)"/><rect x="10" y="12" width="1" height="1" fill="rgb(59,70,202)"/><rect x="6" y="13" width="1" height="1" fill="rgb(59,70,202)"/><rect x="7" y="13" width="1" height="1" fill="rgb(59,70,202)"/><rect x="8" y="13" width="1" height="1" fill="rgb(59,70,202)"/><rect x="9" y="13" width="1" height="1" fill="rgb(59,70,202)"/></svg>
